{
  "accessors": [
    {
      "bufferView": 2,
      "componentType": 5126,
      "count": 749,
      "max": [
        0.6466159820556641,
        0.08196800202131271,
        0.49685999751091003
      ],
      "min": [
        -0.7293310165405273,
        -0.08196800202131271,
        -0.4977250099182129
      ],
      "type": "VEC3"
    },
    {
      "bufferView": 2,
      "byteOffset": 8988,
      "componentType": 5126,
      "count": 749,
      "max": [
        0.9905154705047607,
        0.9999812841415405,
        0.9994150400161743
      ],
      "min": [
        -0.48508745431900024,
        -0.9999812841415405,
        -0.9999837875366211
      ],
      "type": "VEC3"
    },
    {
      "bufferView": 1,
      "componentType": 5126,
      "count": 749,
      "max": [
        0.8589580059051514,
        0.989516019821167
      ],
      "min": [
        0.09188400208950043,
        0.0037930000107735395
      ],
      "type": "VEC2"
    },
    {
      "bufferView": 0,
      "componentType": 5125,
      "count": 3606,
      "type": "SCALAR"
    }
  ],
  "asset": {
    "extras": {
      "author": "The SpezX (https://sketchfab.com/SpezX)",
      "license": "CC-BY-4.0 (http://creativecommons.org/licenses/by/4.0/)",
      "source": "https://sketchfab.com/3d-models/small-fish-8f5de32946f347a0b6c8e55c6a66d46d",
      "title": "Small fish"
    },
    "generator": "Sketchfab-12.68.0",
    "version": "2.0"
  },
  "bufferViews": [
    {
      "buffer": 0,
      "byteLength": 14424,
      "name": "floatBufferViews",
      "target": 34963
    },
    {
      "buffer": 0,
      "byteLength": 5992,
      "byteOffset": 14424,
      "byteStride": 8,
      "name": "floatBufferViews",
      "target": 34962
    },
    {
      "buffer": 0,
      "byteLength": 17976,
      "byteOffset": 20416,
      "byteStride": 12,
      "name": "floatBufferViews",
      "target": 34962
    }
  ],
  "buffers": [
    {
      "byteLength": 38392,
      "uri": "scene.bin"
    }
  ],
  "images": [
    {
      "uri": "textures/Material.001_baseColor.jpeg"
    },
    {
      "uri": "textures/Material.001_metallicRoughness.png"
    }
  ],
  "materials": [
    {
      "name": "Material.001",
      "pbrMetallicRoughness": {
        "baseColorTexture": {
          "index": 0
        },
        "metallicFactor": 0.0,
        "metallicRoughnessTexture": {
          "index": 1
        }
      }
    }
  ],
  "meshes": [
    {
      "name": "Object_0",
      "primitives": [
        {
          "attributes": {
            "NORMAL": 1,
            "POSITION": 0,
            "TEXCOORD_0": 2
          },
          "indices": 3,
          "material": 0,
          "mode": 4
        }
      ]
    }
  ],
  "nodes": [
    {
      "children": [
        1
      ],
      "matrix": [
        0.1926472783088684,
        0.0,
        0.0,
        0.0,
        0.0,
        4.277628880197524e-17,
        -0.1926472783088684,
        0.0,
        0.0,
        0.1926472783088684,
        4.277628880197524e-17,
        0.0,
        0.0,
        0.0,
        0.0,
        1.0
      ],
      "name": "Sketchfab_model"
    },
    {
      "children": [
        2
      ],
      "name": "0fd1c40728824692a1aa0e69cd09e2ea.obj.cleaner.materialmerger.gles"
    },
    {
      "mesh": 0,
      "name": "Object_2"
    }
  ],
  "samplers": [
    {
      "magFilter": 9729,
      "minFilter": 9987,
      "wrapS": 10497,
      "wrapT": 10497
    }
  ],
  "scene": 0,
  "scenes": [
    {
      "name": "Sketchfab_Scene",
      "nodes": [
        0
      ]
    }
  ],
  "textures": [
    {
      "sampler": 0,
      "source": 0
    },
    {
      "sampler": 0,
      "source": 1
    }
  ]
}
